<svg width="114" height="114" viewBox="0 0 114 114" fill="none" xmlns="http://www.w3.org/2000/svg">
<circle cx="57" cy="57" r="57" fill="#FF9657"/>
<g clip-path="url(#clip0)">
<path d="M48.1017 21.71H61.1469C62.5133 21.71 63.6983 22.6547 64.0027 23.9868L64.6545 26.8369V27.8869H48.1017V21.71Z" fill="#919191"/>
<path d="M35.1133 21.71H49.4281C50.7945 21.71 51.9796 22.6547 52.284 23.9868L52.9352 26.8369V27.8869H35.1133V21.71Z" fill="#AFAFAF"/>
<path d="M20.0986 34.1611V24.6396C20.0986 23.0215 21.4101 21.71 23.0283 21.71H36.5129C37.8799 21.71 39.0644 22.6547 39.3693 23.9868L40.0205 26.8369H89.9717C91.5899 26.8369 92.9014 28.1484 92.9014 29.7666V34.1611H20.0986Z" fill="#D8D8D8"/>
<path d="M92.9014 29.7666V34.1611H88.5068V29.7666C88.5068 28.1478 87.1959 26.8369 85.5771 26.8369H89.9717C91.5904 26.8369 92.9014 28.1478 92.9014 29.7666Z" fill="#AFAFAF"/>
<path d="M89.9717 78.8389C91.5899 78.8389 92.9014 77.5274 92.9014 75.9092V31.9639H20.0986V75.9092C20.0986 77.5274 21.4101 78.8389 23.0283 78.8389H89.9717Z" fill="#F2D67C"/>
<path d="M92.9014 31.9639V75.9092C92.9014 77.5279 91.5904 78.8389 89.9717 78.8389H85.7282C87.2766 78.761 88.5068 77.481 88.5068 75.9138V31.9684L92.9014 31.9639Z" fill="#E2B061"/>
<path d="M87.7744 74.4443C88.179 74.4443 88.5068 74.0804 88.5068 73.6307V32.9606C88.5068 32.5109 88.179 32.147 87.7744 32.147H25.2256C24.821 32.147 24.4932 32.5109 24.4932 32.9606V73.6307C24.4932 74.0804 24.821 74.4443 25.2256 74.4443H87.7744Z" fill="#FAFEFF"/>
<path d="M75.4783 41.4854V50.2744H54.083C53.6785 50.2744 53.3506 49.9465 53.3506 49.542V42.2178C53.3506 41.8132 53.6785 41.4854 54.083 41.4854H75.4783Z" fill="#AAC9E2"/>
<path d="M82.501 42.2178V49.542C82.501 49.9465 82.1731 50.2744 81.7686 50.2744H74.0135V41.4854H81.7686C82.1731 41.4854 82.501 41.8132 82.501 42.2178Z" fill="#6095B2"/>
<path d="M75.4783 63.458H54.083C53.6785 63.458 53.3506 63.1301 53.3506 62.7256V55.4014C53.3506 54.9968 53.6785 54.6689 54.083 54.6689H75.4783V63.458Z" fill="#AAC9E2"/>
<path d="M82.501 55.4014V62.7256C82.501 63.1301 82.1731 63.458 81.7686 63.458H74.0135V54.6689H81.7686C82.1731 54.6689 82.501 54.9968 82.501 55.4014Z" fill="#6095B2"/>
<path d="M75.6162 91.29H64.1904C62.8961 91.29 61.8467 90.2406 61.8467 88.9463V84.9912H77.96V88.9463C77.96 90.2406 76.9105 91.29 75.6162 91.29Z" fill="#EF9867"/>
<path d="M77.96 86.3639V88.9463C77.96 90.2412 76.9111 91.29 75.6162 91.29H71.2217C72.5166 91.29 73.5654 90.2412 73.5654 88.9463V86.456H77.2275C77.4793 86.456 77.7254 86.424 77.96 86.3639Z" fill="#D16346"/>
<path d="M59.6494 83.9659L57.3886 83.0812C55.7041 82.422 54.5957 80.7976 54.5957 78.9888V72.8817C54.5957 71.4912 55.7195 70.3617 57.1105 70.3548C58.5107 70.348 59.6488 71.4809 59.6494 72.8811C59.6494 74.6034 61.5537 78.0332 61.5537 78.0332L59.6494 83.9659Z" fill="#AFAFAF"/>
<path d="M77.5445 69.7574C76.1518 69.7831 75.0303 70.9207 75.0303 72.3203C75.0303 70.9047 73.8824 69.7568 72.4668 69.7568C71.0512 69.7568 69.9033 70.9047 69.9033 72.3203C69.9033 70.9047 68.7555 69.7568 67.3398 69.7568C65.9242 69.7568 64.7764 70.9047 64.7764 72.3203V61.4015C64.7764 59.9641 63.6005 58.7442 62.1637 58.7711C60.7709 58.7974 59.6494 59.9349 59.6494 61.334V83.5263C59.6494 85.1445 60.9609 86.456 62.5791 86.456H77.2275C78.8457 86.456 80.1572 85.1445 80.1572 83.5263V72.3878C80.1572 70.9504 78.9813 69.7305 77.5445 69.7574Z" fill="#D8D8D8"/>
<path d="M80.1572 72.3878V83.5264C80.1572 84.8916 79.224 86.0383 77.96 86.3639C77.7254 86.424 77.4793 86.456 77.2275 86.456H73.5654V86.3639C74.3345 86.1659 74.9822 85.6635 75.3684 84.9912C75.6191 84.5603 75.7627 84.0596 75.7627 83.5264V72.3878C75.7627 71.8923 75.6236 71.4254 75.3816 71.0237C75.8199 70.2781 76.6227 69.7746 77.5457 69.7568C78.9808 69.7305 80.1572 70.9504 80.1572 72.3878V72.3878Z" fill="#AFAFAF"/>
<path d="M89.9717 25.7383H65.53L65.0739 23.7419C64.6522 21.8988 63.0374 20.6113 61.1469 20.6113H23.0283C20.807 20.6113 19 22.4184 19 24.6396V75.9092C19 78.1305 20.807 79.9375 23.0283 79.9375H53.5806C53.9033 81.8109 55.1685 83.3919 56.9887 84.1043L58.7573 84.7967C59.0927 85.8037 59.8154 86.6346 60.748 87.1129V88.9463C60.748 90.8443 62.2924 92.3887 64.1904 92.3887H75.6162C77.5142 92.3887 79.0586 90.8443 79.0586 88.9463V87.1124C80.3615 86.4446 81.2559 85.0885 81.2559 83.5264V75.543H87.7744C88.7844 75.543 89.6055 74.7219 89.6055 73.7119V33.0625H91.8027V75.9092C91.8027 76.9191 90.9816 77.7402 89.9717 77.7402H85.2842C84.6771 77.7402 84.1855 78.2323 84.1855 78.8389C84.1855 79.4454 84.6771 79.9375 85.2842 79.9375H89.9717C92.193 79.9375 94 78.1305 94 75.9092V29.7666C94 27.5453 92.193 25.7383 89.9717 25.7383ZM62.9316 24.2317L63.276 25.7383H53.8112L53.3552 23.7419C53.2796 23.4111 53.164 23.0993 53.017 22.8086H61.1469C62.0063 22.8086 62.7405 23.394 62.9316 24.2317ZM49.4281 22.8086C50.2876 22.8086 51.0217 23.394 51.2134 24.2317L51.5573 25.7383H40.8966L40.4399 23.7419C40.3644 23.4111 40.2488 23.0993 40.1018 22.8086H49.4281ZM23.0283 22.8086H36.5129C37.3723 22.8086 38.1065 23.394 38.2982 24.2317L38.9493 27.0818C39.0638 27.5814 39.5084 27.9355 40.0205 27.9355H89.9717C90.9816 27.9355 91.8027 28.7572 91.8027 29.7666V30.8652H21.1973V24.6396C21.1973 23.6297 22.0184 22.8086 23.0283 22.8086ZM55.6943 78.9888V72.8822C55.6943 72.0983 56.3318 71.4574 57.1157 71.454C57.4996 71.4511 57.859 71.5993 58.1302 71.8694C58.4014 72.1395 58.5502 72.4988 58.5502 72.8811L58.5508 76.5684V82.3562L57.7892 82.0581C56.5166 81.5603 55.6943 80.3552 55.6943 78.9888V78.9888ZM81.4023 55.7676V62.3594H75.1121V55.7676H81.4023ZM72.9148 62.3594H65.875V61.4009C65.875 60.4019 65.463 59.4245 64.7455 58.7202C64.0388 58.0261 63.1153 57.6559 62.1431 57.6724C60.1627 57.7096 58.5508 59.3524 58.5508 61.334V62.3594H54.4492V55.7676H72.9148V62.3594ZM75.6162 90.1914H64.1904C63.5038 90.1914 62.9453 89.6329 62.9453 88.9463V87.5547H76.8613V88.9463C76.8613 89.6329 76.3029 90.1914 75.6162 90.1914ZM79.0586 83.5264C79.0586 84.5363 78.2375 85.3574 77.2275 85.3574H62.5791C61.5692 85.3574 60.748 84.5363 60.748 83.5264V61.334C60.748 60.5415 61.3923 59.884 62.1849 59.8691H62.21C62.5774 59.8691 62.9304 60.0173 63.2062 60.288C63.5061 60.5821 63.6777 60.9878 63.6777 61.4009V74.957C63.6777 75.5636 64.1698 76.0557 64.7764 76.0557C65.3835 76.0557 65.875 75.5636 65.875 74.957V72.3203C65.875 71.5124 66.5325 70.8555 67.3398 70.8555C68.1478 70.8555 68.8047 71.5124 68.8047 72.3203V74.957C68.8047 75.5636 69.2968 76.0557 69.9033 76.0557C70.5104 76.0557 71.002 75.5636 71.002 74.957V72.3203C71.002 71.5124 71.6594 70.8555 72.4668 70.8555C73.2747 70.8555 73.9316 71.5124 73.9316 72.3203V74.957C73.9316 75.5636 74.4237 76.0557 75.0303 76.0557C75.6374 76.0557 76.1289 75.5636 76.1289 74.957V72.3203C76.1289 71.5278 76.7732 70.8703 77.5657 70.8555C77.9411 70.848 78.305 70.9974 78.5877 71.2743C78.8869 71.5684 79.0592 71.9741 79.0592 72.3873V83.5264H79.0586ZM87.4082 73.3457H81.2559V72.3873C81.2559 71.3882 80.8439 70.4109 80.1263 69.7065C79.4197 69.0124 78.5013 68.6416 77.5239 68.6588C76.5586 68.6771 75.6803 69.0765 75.0343 69.7111C74.3728 69.0605 73.4659 68.6582 72.4668 68.6582C71.4694 68.6582 70.5642 69.0587 69.9033 69.7076C69.2424 69.0587 68.3372 68.6582 67.3398 68.6582C66.8191 68.6582 66.3236 68.7675 65.875 68.9638V64.5566H81.7686C82.7785 64.5566 83.5996 63.7355 83.5996 62.7256V55.4014C83.5996 54.3914 82.7785 53.5703 81.7686 53.5703H54.083C53.0731 53.5703 52.252 54.3914 52.252 55.4014V62.7256C52.252 63.7355 53.0731 64.5566 54.083 64.5566H58.5508V69.548C58.1056 69.3574 57.6221 69.2567 57.1231 69.2567C57.1174 69.2567 57.1111 69.2567 57.1054 69.2567C55.1158 69.2659 53.4971 70.8927 53.4971 72.8822V73.3457H25.5918V37.0908C25.5918 36.4843 25.1003 35.9922 24.4932 35.9922C23.8861 35.9922 23.3945 36.4843 23.3945 37.0908V73.7119C23.3945 74.7219 24.2156 75.543 25.2256 75.543H53.4971V77.7402H23.0283C22.0184 77.7402 21.1973 76.9191 21.1973 75.9092V33.0625H87.4082V73.3457Z" fill="black"/>
<path d="M54.083 51.373H81.7686C82.7785 51.373 83.5996 50.5519 83.5996 49.542V42.2178C83.5996 41.2078 82.7785 40.3867 81.7686 40.3867H54.083C53.0731 40.3867 52.252 41.2078 52.252 42.2178V49.542C52.252 50.5519 53.0731 51.373 54.083 51.373ZM81.4023 49.1758H75.1121V42.584H81.4023V49.1758ZM54.4492 42.584H72.9148V49.1758H54.4492V42.584Z" fill="black"/>
<path d="M30.4258 42.584H46.832C47.4391 42.584 47.9307 42.0919 47.9307 41.4854C47.9307 40.8788 47.4391 40.3867 46.832 40.3867H30.4258C29.8187 40.3867 29.3271 40.8788 29.3271 41.4854C29.3271 42.0919 29.8187 42.584 30.4258 42.584Z" fill="black"/>
<path d="M30.4258 46.9785H46.832C47.4391 46.9785 47.9307 46.4864 47.9307 45.8799C47.9307 45.2733 47.4391 44.7812 46.832 44.7812H30.4258C29.8187 44.7812 29.3271 45.2733 29.3271 45.8799C29.3271 46.4864 29.8187 46.9785 30.4258 46.9785Z" fill="black"/>
<path d="M30.4258 51.373H41.8516C42.4587 51.373 42.9502 50.881 42.9502 50.2744C42.9502 49.6679 42.4587 49.1758 41.8516 49.1758H30.4258C29.8187 49.1758 29.3271 49.6679 29.3271 50.2744C29.3271 50.881 29.8187 51.373 30.4258 51.373Z" fill="black"/>
<path d="M30.4258 55.7676H46.832C47.4391 55.7676 47.9307 55.2755 47.9307 54.6689C47.9307 54.0624 47.4391 53.5703 46.832 53.5703H30.4258C29.8187 53.5703 29.3271 54.0624 29.3271 54.6689C29.3271 55.2755 29.8187 55.7676 30.4258 55.7676Z" fill="black"/>
<path d="M30.4258 60.1621H41.8516C42.4587 60.1621 42.9502 59.67 42.9502 59.0635C42.9502 58.4569 42.4587 57.9648 41.8516 57.9648H30.4258C29.8187 57.9648 29.3271 58.4569 29.3271 59.0635C29.3271 59.67 29.8187 60.1621 30.4258 60.1621Z" fill="black"/>
<path d="M30.4258 64.4102H37.457C38.0641 64.4102 38.5557 63.9181 38.5557 63.3115C38.5557 62.705 38.0641 62.2129 37.457 62.2129H30.4258C29.8187 62.2129 29.3271 62.705 29.3271 63.3115C29.3271 63.9181 29.8187 64.4102 30.4258 64.4102Z" fill="black"/>
<path d="M26.1777 27.9355H33.6484C34.2555 27.9355 34.7471 27.4435 34.7471 26.8369C34.7471 26.2304 34.2555 25.7383 33.6484 25.7383H26.1777C25.5706 25.7383 25.0791 26.2304 25.0791 26.8369C25.0791 27.4435 25.5706 27.9355 26.1777 27.9355Z" fill="black"/>
</g>
<defs>
<clipPath id="clip0">
<rect width="75" height="75" fill="white" transform="translate(19 19)"/>
</clipPath>
</defs>
</svg>
