<svg width="114" height="114" viewBox="0 0 114 114" fill="none" xmlns="http://www.w3.org/2000/svg">
<circle cx="57" cy="57" r="57" fill="#FF9657"/>
<path d="M68.3893 90.1383H27.7919C26.4763 90.1383 25.4097 89.0717 25.4097 87.7561V30.083C25.4097 28.7674 26.4763 27.7008 27.7919 27.7008H68.3893C69.7049 27.7008 70.7715 28.7674 70.7715 30.083V87.7561C70.7715 89.0717 69.7049 90.1383 68.3893 90.1383Z" fill="#FAFEFF"/>
<path d="M87.9872 49.4489V73.1361H80.0398V49.4489H87.9872Z" fill="#F2D67C"/>
<path d="M80.0398 44.3812V49.4489H87.9872V44.3812C87.9872 43.6788 87.4179 43.1096 86.7156 43.1096H81.3114C80.6091 43.1096 80.0398 43.6788 80.0398 44.3812Z" fill="#F47C7C"/>
<path d="M87.9871 73.136H80.0397L83.3636 79.7954C83.6802 80.4297 84.3466 80.4297 84.6631 79.7954L87.9871 73.136Z" fill="#F9C6C6"/>
<path d="M87.9872 49.4489V73.1361H80.0398V49.4489H87.9872Z" fill="#F2D67C"/>
<path d="M80.0398 44.3812V49.4489H87.9872V44.3812C87.9872 43.6788 87.4179 43.1096 86.7156 43.1096H81.3114C80.6091 43.1096 80.0398 43.6788 80.0398 44.3812Z" fill="#EF9867"/>
<path d="M87.9871 73.136H80.0397L83.3636 79.7954C83.6802 80.4297 84.3466 80.4297 84.6631 79.7954L87.9871 73.136Z" fill="#F9C6C6"/>
<path d="M84.1586 49.4489H87.9871V73.1361H84.1586V49.4489Z" fill="#E2B061"/>
<path d="M86.7156 43.1096H82.8871C83.5895 43.1096 84.1587 43.6788 84.1587 44.3812V49.4489H87.9872V44.381C87.987 43.6788 87.4178 43.1096 86.7156 43.1096Z" fill="#D16346"/>
<path d="M84.1587 73.136L82.0993 77.2621L83.3637 79.7954C83.6803 80.4297 84.3467 80.4297 84.6633 79.7954L87.9872 73.136H84.1587Z" fill="#F9B1B1"/>
<path d="M73.0551 23.0129H32.4578C31.1421 23.0129 30.0756 24.0795 30.0756 25.3951V27.7008H68.3673C69.6829 27.7008 70.7495 28.7673 70.7495 30.083V85.4504H73.0551C74.3707 85.4504 75.4373 84.3839 75.4373 83.0682V25.3951C75.4373 24.0795 74.3707 23.0129 73.0551 23.0129V23.0129Z" fill="#AFAFAF"/>
<path d="M37.4633 84.7031H31.8808C31.2841 84.7031 30.8004 84.2193 30.8004 83.6226V78.0401C30.8004 77.4434 31.2841 76.9597 31.8808 76.9597H37.4633C38.06 76.9597 38.5438 77.4434 38.5438 78.0401V83.6226C38.5438 84.2193 38.0602 84.7031 37.4633 84.7031V84.7031Z" fill="#7CA1B1"/>
<path d="M50.1087 53.7949H32.151C31.405 53.7949 30.8004 53.1902 30.8004 52.4442V34.4865C30.8004 33.7406 31.405 33.1359 32.151 33.1359H50.1087C50.8546 33.1359 51.4593 33.7406 51.4593 34.4865V52.4442C51.4593 53.1902 50.8546 53.7949 50.1087 53.7949Z" fill="#FEE2CA"/>
<path d="M41.1298 44.0156C43.1265 44.0156 44.7452 42.3969 44.7452 40.4002C44.7452 38.4034 43.1265 36.7847 41.1298 36.7847C39.133 36.7847 37.5143 38.4034 37.5143 40.4002C37.5143 42.3969 39.133 44.0156 41.1298 44.0156Z" fill="#FFCEBF"/>
<path d="M37.1871 50.146H45.0725V47.9583C45.0725 45.7809 43.3072 44.0156 41.1298 44.0156C38.9523 44.0156 37.1871 45.7809 37.1871 47.9583V50.146Z" fill="#EF9867"/>
<path d="M68.3893 27.7008H64.1641C65.4797 27.7008 66.5463 28.7674 66.5463 30.083V87.7561C66.5463 89.0717 65.4797 90.1383 64.1641 90.1383H68.3893C69.7049 90.1383 70.7715 89.0717 70.7715 87.7561V30.083C70.7715 28.7674 69.7049 27.7008 68.3893 27.7008V27.7008Z" fill="#AAC9E2"/>
<path d="M73.0551 22H32.4578C30.5856 22 29.0626 23.5231 29.0626 25.3953V26.6878H27.3952C25.5231 26.6878 24 28.2109 24 30.0831V73.4804C24 74.04 24.4535 74.4934 25.013 74.4934C25.5724 74.4934 26.0259 74.04 26.0259 73.4804V30.0831C26.0259 29.328 26.6402 28.7137 27.3952 28.7137H67.9925C68.7475 28.7137 69.3617 29.328 69.3617 30.0831V87.7561C69.3617 88.5112 68.7475 89.1255 67.9925 89.1255H27.3952C26.6402 89.1255 26.0259 88.5112 26.0259 87.7561V78.2077C26.0259 77.6481 25.5724 77.1947 25.013 77.1947C24.4535 77.1947 24 77.6481 24 78.2077V87.7561C24 89.6282 25.5231 91.1514 27.3952 91.1514H67.9925C69.8646 91.1514 71.3876 89.6283 71.3876 87.7561V86.4635H73.055C74.9271 86.4635 76.4501 84.9405 76.4501 83.0682V38.2734C76.4501 37.7138 75.9966 37.2604 75.4372 37.2604C74.8778 37.2604 74.4242 37.7138 74.4242 38.2734V83.0681C74.4242 83.8232 73.81 84.4375 73.055 84.4375H71.7623V30.0831C71.7623 28.2111 70.2392 26.6878 68.3671 26.6878C67.8093 26.6878 31.3453 26.6878 31.0884 26.6878V25.3953C31.0885 24.6402 31.7027 24.0259 32.4578 24.0259H73.0551C73.8101 24.0259 74.4244 24.6402 74.4244 25.3953V33.5464C74.4244 34.1059 74.8779 34.5593 75.4373 34.5593C75.9967 34.5593 76.4503 34.1059 76.4503 33.5464V25.3953C76.4503 23.5231 74.9272 22 73.0551 22V22Z" fill="black"/>
<path d="M86.7154 42.0966H81.3112C80.0515 42.0966 79.0267 43.1214 79.0267 44.3811V73.136C79.0267 73.1556 79.0286 73.1746 79.0296 73.1939C79.0302 73.2045 79.0303 73.215 79.0313 73.2256C79.0384 73.3066 79.0553 73.3847 79.0803 73.4591C79.083 73.4669 79.0861 73.4747 79.0889 73.4826C79.1003 73.5136 79.1131 73.544 79.1273 73.5737C79.1296 73.5785 79.1311 73.5836 79.1335 73.5883L82.4574 80.2477C82.7812 80.8966 83.3629 81.2841 84.0135 81.2841C84.6641 81.2841 85.2458 80.8966 85.5696 80.2478L88.8934 73.5883C88.8964 73.5825 88.8981 73.5763 88.901 73.5705C88.9141 73.5431 88.9258 73.515 88.9365 73.4862C88.9402 73.4764 88.9439 73.4668 88.9472 73.4569C88.9588 73.4222 88.9689 73.3867 88.9768 73.3503C88.9773 73.3478 88.9782 73.3454 88.9788 73.3428C88.9866 73.3052 88.9919 73.2667 88.9954 73.2277C88.9966 73.2145 88.9967 73.2012 88.9974 73.188C88.9984 73.1707 89 73.1536 89 73.136C89 72.0852 89 45.8163 89 44.3811C89 43.1214 87.9751 42.0966 86.7154 42.0966ZM84.0134 78.8291L81.6775 74.1491H86.3494L84.0134 78.8291ZM86.9741 72.1231H81.0527V50.4617H86.9741V72.1231ZM86.9741 48.4358H81.0527V44.3811C81.0527 44.2385 81.1687 44.1225 81.3114 44.1225H86.7156C86.8582 44.1225 86.9742 44.2385 86.9742 44.3811L86.9741 48.4358Z" fill="black"/>
<path d="M29.7874 83.6227C29.7874 84.777 30.7265 85.7161 31.8809 85.7161H37.4633C38.6177 85.7161 39.5568 84.777 39.5568 83.6227V78.2883L41.8678 75.8298C42.251 75.4222 42.2311 74.781 41.8235 74.3979C41.4159 74.0147 40.7749 74.0346 40.3916 74.4422L38.6376 76.3082C38.3025 76.0802 37.8982 75.9467 37.4633 75.9467H31.8809C30.7265 75.9467 29.7874 76.8858 29.7874 78.0402V83.6227ZM37.5309 80.4435V83.6227C37.5309 83.6598 37.5006 83.6902 37.4633 83.6902H34.4613C34.5012 83.659 34.5397 83.6255 34.5749 83.5881L37.5309 80.4435ZM31.8133 78.0402C31.8133 78.003 31.8436 77.9727 31.8809 77.9727H37.073L33.9788 81.2644L32.1634 78.4979C32.0714 78.3577 31.9501 78.2485 31.8135 78.1716V78.0402H31.8133ZM31.8133 81.6574C33.096 83.612 33.0341 83.5509 33.2113 83.6902H31.8809C31.8436 83.6902 31.8133 83.6598 31.8133 83.6227V81.6574Z" fill="black"/>
<path d="M64.553 79.8184H43.0333C42.4739 79.8184 42.0204 80.2718 42.0204 80.8314C42.0204 81.3909 42.4739 81.8443 43.0333 81.8443H64.553C65.1124 81.8443 65.566 81.3909 65.566 80.8314C65.566 80.2718 65.1124 79.8184 64.553 79.8184Z" fill="black"/>
<path d="M32.151 54.8078H50.1086C51.4118 54.8078 52.4721 53.7475 52.4721 52.4443V34.4866C52.4721 33.1833 51.4118 32.123 50.1086 32.123H32.151C30.8478 32.123 29.7874 33.1833 29.7874 34.4866V52.4443C29.7874 53.7476 30.8478 54.8078 32.151 54.8078V54.8078ZM31.8133 34.4866C31.8133 34.3003 31.9649 34.1489 32.151 34.1489H50.1086C50.2947 34.1489 50.4462 34.3003 50.4462 34.4866V52.4443C50.4462 52.6305 50.2947 52.7819 50.1086 52.7819H32.151C31.9649 52.7819 31.8133 52.6305 31.8133 52.4443V34.4866Z" fill="black"/>
<path d="M37.1863 51.1583C37.7454 51.1583 38.2006 50.7045 38.2006 50.1467V47.9587C38.2033 46.3502 39.5106 45.0377 41.1174 45.0281C41.1216 45.0281 41.1256 45.0284 41.1298 45.0284C41.1341 45.0284 41.1383 45.0281 41.1425 45.0281C42.7495 45.0376 44.0568 46.3501 44.0595 47.9587V49.1336H41.9134C41.3556 49.1336 40.9005 49.5874 40.9005 50.1465C40.9005 50.7043 41.3556 51.1595 41.9134 51.1595C41.9148 51.1595 41.9161 51.1595 41.9161 51.1581H45.0725C45.3386 51.1581 45.6006 51.0501 45.7883 50.8625C45.9774 50.6734 46.0855 50.4127 46.0855 50.1465V47.9587C46.0855 46.6336 45.5695 45.3897 44.6336 44.4539C44.457 44.2773 44.2696 44.1158 44.0726 43.9699C45.1014 43.1203 45.7582 41.8356 45.7582 40.4003C45.7582 37.8482 43.6819 35.7717 41.1298 35.7717C38.5777 35.7717 36.5014 37.848 36.5014 40.4003C36.5014 41.8354 37.1581 43.1201 38.1867 43.9698C37.9896 44.1158 37.8019 44.2773 37.6252 44.454C36.6893 45.39 36.1747 46.6339 36.1747 47.9588V50.1467C36.1747 50.4129 36.2827 50.6734 36.4705 50.8626C36.6596 51.0502 36.9202 51.1583 37.1863 51.1583V51.1583ZM41.1298 37.7976C42.5648 37.7976 43.7323 38.9652 43.7323 40.4003C43.7323 41.8323 42.5696 42.9974 41.1386 43.0022C41.1357 43.0022 41.1329 43.0021 41.1301 43.0021C41.1271 43.0021 41.1241 43.0022 41.1212 43.0024C39.6902 42.9976 38.5273 41.8325 38.5273 40.4004C38.5273 38.9651 39.6948 37.7976 41.1298 37.7976V37.7976Z" fill="black"/>
<path d="M55.6001 39.0943H64.553C65.1125 39.0943 65.566 38.6409 65.566 38.0814C65.566 37.5218 65.1125 37.0684 64.553 37.0684H55.6001C55.0407 37.0684 54.5872 37.5218 54.5872 38.0814C54.5872 38.6409 55.0407 39.0943 55.6001 39.0943Z" fill="black"/>
<path d="M55.6001 44.8372H64.553C65.1125 44.8372 65.566 44.3838 65.566 43.8242C65.566 43.2647 65.1125 42.8113 64.553 42.8113H55.6001C55.0407 42.8113 54.5872 43.2647 54.5872 43.8242C54.5872 44.3838 55.0407 44.8372 55.6001 44.8372Z" fill="black"/>
<path d="M55.6001 50.9627H64.553C65.1125 50.9627 65.566 50.5093 65.566 49.9497C65.566 49.3902 65.1125 48.9368 64.553 48.9368H55.6001C55.0407 48.9368 54.5872 49.3902 54.5872 49.9497C54.5872 50.5093 55.0407 50.9627 55.6001 50.9627Z" fill="black"/>
<path d="M30.8004 60.7443H64.5531C65.1125 60.7443 65.566 60.2909 65.566 59.7313C65.566 59.1718 65.1125 58.7184 64.5531 58.7184H30.8004C30.2409 58.7184 29.7874 59.1718 29.7874 59.7313C29.7874 60.2909 30.2409 60.7443 30.8004 60.7443V60.7443Z" fill="black"/>
<path d="M30.8004 66.487H64.5531C65.1125 66.487 65.566 66.0336 65.566 65.4741C65.566 64.9145 65.1125 64.4611 64.5531 64.4611H30.8004C30.2409 64.4611 29.7874 64.9145 29.7874 65.4741C29.7874 66.0336 30.2409 66.487 30.8004 66.487V66.487Z" fill="black"/>
<path d="M30.8004 72.2298H64.5531C65.1125 72.2298 65.566 71.7764 65.566 71.2169C65.566 70.6573 65.1125 70.2039 64.5531 70.2039H30.8004C30.2409 70.2039 29.7874 70.6573 29.7874 71.2169C29.7874 71.7764 30.2409 72.2298 30.8004 72.2298V72.2298Z" fill="black"/>
</svg>
