<svg width="114" height="114" viewBox="0 0 114 114" fill="none" xmlns="http://www.w3.org/2000/svg">
<circle cx="57" cy="57" r="57" fill="#FF9657"/>
<path d="M89.7097 29.008V71.9516H21V29.008C20.9999 28.6321 21.0739 28.2597 21.2177 27.9123C21.3615 27.5649 21.5724 27.2493 21.8383 26.9834C22.1041 26.7175 22.4198 26.5067 22.7672 26.3628C23.1146 26.219 23.4869 26.145 23.8629 26.1451H86.8468C87.2228 26.145 87.5951 26.219 87.9425 26.3628C88.2899 26.5067 88.6055 26.7175 88.8714 26.9834C89.1373 27.2493 89.3481 27.5649 89.492 27.9123C89.6358 28.2597 89.7098 28.6321 89.7097 29.008V29.008Z" fill="#FAFEFF"/>
<path d="M21 71.9516V75.9597C20.9999 76.3357 21.0739 76.708 21.2177 77.0554C21.3615 77.4028 21.5724 77.7184 21.8383 77.9843C22.1041 78.2502 22.4198 78.461 22.7672 78.6049C23.1146 78.7487 23.4869 78.8227 23.8629 78.8226H86.8468C87.2228 78.8227 87.5951 78.7487 87.9425 78.6049C88.2899 78.461 88.6055 78.2502 88.8714 77.9843C89.1373 77.7184 89.3481 77.4028 89.492 77.0554C89.6358 76.708 89.7098 76.3357 89.7097 75.9597V71.9516H21Z" fill="#E0E0E2"/>
<path d="M67.0928 84.5484H46.4799L48.7702 78.8226H64.8024L67.0928 84.5484Z" fill="#787680"/>
<path d="M38.1774 84.5484H72.5322V87.9839H38.1774V84.5484Z" fill="#E0E0E2"/>
<path d="M53.6371 30.7258H29.5887C28.0076 30.7258 26.7258 32.0075 26.7258 33.5887V64.508C26.7258 66.0892 28.0076 67.3709 29.5887 67.3709H53.6371C55.2183 67.3709 56.5 66.0892 56.5 64.508V33.5887C56.5 32.0075 55.2183 30.7258 53.6371 30.7258Z" fill="#AAC9E2"/>
<path d="M86.2741 36.4516V64.5081C86.2742 64.884 86.2003 65.2564 86.0564 65.6038C85.9126 65.9512 85.7017 66.2668 85.4358 66.5327C85.17 66.7985 84.8543 67.0094 84.5069 67.1533C84.1595 67.2971 83.7872 67.3711 83.4112 67.371H63.9435C63.5675 67.3711 63.1951 67.2971 62.8478 67.1533C62.5004 67.0094 62.1847 66.7985 61.9188 66.5327C61.653 66.2668 61.4421 65.9512 61.2983 65.6038C61.1544 65.2564 61.0805 64.884 61.0806 64.5081V36.4516H86.2741Z" fill="#AAC9E2"/>
<path d="M86.2741 33.5887V36.4516H61.0806V33.5887C61.0805 33.2127 61.1544 32.8403 61.2983 32.493C61.4421 32.1456 61.653 31.8299 61.9188 31.564C62.1847 31.2982 62.5004 31.0873 62.8478 30.9435C63.1951 30.7996 63.5675 30.7257 63.9435 30.7258H83.4112C83.7872 30.7257 84.1595 30.7996 84.5069 30.9435C84.8543 31.0873 85.17 31.2982 85.4358 31.564C85.7017 31.8299 85.9126 32.1456 86.0564 32.493C86.2003 32.8403 86.2742 33.2127 86.2741 33.5887V33.5887Z" fill="#3E3D42"/>
<path d="M64.5161 41.0323H69.0968V44.4678H64.5161V41.0323Z" fill="#E0E0E2"/>
<path d="M64.5161 47.9033H69.0968V51.3387H64.5161V47.9033Z" fill="#E0E0E2"/>
<path d="M64.5161 54.7742H69.0968V58.2097H64.5161V54.7742Z" fill="#E0E0E2"/>
<path d="M47.323 40.8247C40.5408 44.1643 36.0303 43.0363 36.0303 43.0363V42.0343C36.0308 40.5159 36.6343 39.0598 37.708 37.9861C38.7816 36.9125 40.2377 36.309 41.7561 36.3085C42.5139 36.3124 43.263 36.4694 43.9587 36.7699C44.6543 37.0705 45.282 37.5085 45.8042 38.0577C46.5386 38.816 47.0587 39.7555 47.3115 40.7803C47.3158 40.7946 47.3201 40.8104 47.323 40.8247V40.8247Z" fill="#D16346"/>
<path d="M47.4819 42.1775V46.615C47.4819 48.1336 46.8786 49.5899 45.8048 50.6637C44.731 51.7375 43.2747 52.3408 41.7561 52.3408C40.2375 52.3408 38.7811 51.7375 37.7073 50.6637C36.6335 49.5899 36.0303 48.1336 36.0303 46.615V43.0364C36.0303 43.0364 40.5408 44.1643 47.323 40.8248C47.4288 41.2679 47.4821 41.7219 47.4819 42.1775V42.1775Z" fill="#FFDAAA"/>
<path d="M47.4817 40.746C47.4288 40.7732 47.3758 40.7989 47.3229 40.8247C47.32 40.8104 47.3157 40.7946 47.3114 40.7803L47.4817 40.746Z" fill="#E0E0E2"/>
<path d="M44.0464 54.631H46.3367C47.8553 54.631 49.3116 55.2343 50.3854 56.3081C51.4592 57.3819 52.0625 58.8383 52.0625 60.3568V67.2278H31.4496V60.3568C31.4496 58.8383 32.0528 57.3819 33.1266 56.3081C34.2004 55.2343 35.6568 54.631 37.1754 54.631H39.4657" fill="#EF9867"/>
<path d="M44.0463 52.3408V54.6311C44.0463 55.2385 43.805 55.8211 43.3755 56.2506C42.946 56.6801 42.3635 56.9214 41.756 56.9214C41.1486 56.9214 40.566 56.6801 40.1365 56.2506C39.707 55.8211 39.4657 55.2385 39.4657 54.6311V52.3408H44.0463Z" fill="#FFDAAA"/>
<path d="M87.9919 25H25.0081C23.9454 25.0012 22.9266 25.4238 22.1752 26.1752C21.4238 26.9266 21.0012 27.9454 21 29.0081V75.9597C21.0012 77.0223 21.4238 78.0411 22.1752 78.7925C22.9266 79.5439 23.9454 79.9666 25.0081 79.9677H46.7919L45.4177 83.4032H39.3226C39.0189 83.4032 38.7276 83.5239 38.5128 83.7386C38.2981 83.9534 38.1774 84.2447 38.1774 84.5484V87.9839C38.1774 88.2876 38.2981 88.5789 38.5128 88.7936C38.7276 89.0084 39.0189 89.129 39.3226 89.129H73.6774C73.9811 89.129 74.2724 89.0084 74.4872 88.7936C74.7019 88.5789 74.8226 88.2876 74.8226 87.9839V84.5484C74.8226 84.2447 74.7019 83.9534 74.4872 83.7386C74.2724 83.5239 73.9811 83.4032 73.6774 83.4032H67.5823L66.2081 79.9677H87.9919C89.0546 79.9666 90.0734 79.5439 90.8248 78.7925C91.5762 78.0411 91.9988 77.0223 92 75.9597V29.0081C91.9988 27.9454 91.5762 26.9266 90.8248 26.1752C90.0734 25.4238 89.0546 25.0012 87.9919 25ZM72.5323 85.6936V86.8387H40.4677V85.6936H72.5323ZM47.8855 83.4032L49.2597 79.9677H63.7403L65.1145 83.4032H47.8855ZM89.7097 75.9597C89.7093 76.4151 89.5282 76.8518 89.2061 77.1739C88.8841 77.4959 88.4474 77.677 87.9919 77.6774H25.0081C24.5526 77.677 24.1159 77.4959 23.7939 77.1739C23.4718 76.8518 23.2907 76.4151 23.2903 75.9597V73.0968H89.7097V75.9597ZM89.7097 70.8065H23.2903V29.0081C23.2907 28.5526 23.4718 28.1159 23.7939 27.7939C24.1159 27.4718 24.5526 27.2907 25.0081 27.2903H87.9919C88.4474 27.2907 88.8841 27.4718 89.2061 27.7939C89.5282 28.1159 89.7093 28.5526 89.7097 29.0081V70.8065Z" fill="black"/>
<path d="M53.637 29.5807H29.5886C28.526 29.5819 27.5072 30.0045 26.7558 30.7559C26.0044 31.5073 25.5817 32.5261 25.5806 33.5888V64.5081C25.5817 65.5708 26.0044 66.5895 26.7558 67.3409C27.5072 68.0923 28.526 68.515 29.5886 68.5162H53.637C54.6997 68.515 55.7185 68.0923 56.4699 67.3409C57.2213 66.5895 57.6439 65.5708 57.6451 64.5081V33.5888C57.6439 32.5261 57.2213 31.5073 56.4699 30.7559C55.7185 30.0045 54.6997 29.5819 53.637 29.5807V29.5807ZM50.7741 66.2258H48.4838V61.6452C48.4838 61.3415 48.3631 61.0502 48.1484 60.8355C47.9336 60.6207 47.6423 60.5 47.3386 60.5C47.0349 60.5 46.7436 60.6207 46.5289 60.8355C46.3141 61.0502 46.1935 61.3415 46.1935 61.6452V66.2258H37.0322V61.6452C37.0322 61.3415 36.9115 61.0502 36.6968 60.8355C36.482 60.6207 36.1907 60.5 35.887 60.5C35.5833 60.5 35.292 60.6207 35.0773 60.8355C34.8625 61.0502 34.7419 61.3415 34.7419 61.6452V66.2258H32.4515V60.5C32.4529 59.2856 32.9359 58.1213 33.7947 57.2625C34.6534 56.4038 35.8177 55.9208 37.0322 55.9194H38.3749C38.6115 56.5891 39.0499 57.169 39.6298 57.5792C40.2097 57.9893 40.9025 58.2096 41.6128 58.2096C42.3231 58.2096 43.0159 57.9893 43.5958 57.5792C44.1757 57.169 44.6142 56.5891 44.8508 55.9194H46.1935C47.4079 55.9208 48.5722 56.4038 49.431 57.2625C50.2897 58.1213 50.7728 59.2856 50.7741 60.5V66.2258ZM37.9412 44.5079C39.7935 44.5079 42.6564 44.1729 46.1935 42.677V46.7581C46.1935 47.973 45.7109 49.1381 44.8518 49.9971C43.9928 50.8561 42.8277 51.3388 41.6128 51.3388C40.398 51.3388 39.2329 50.8561 38.3738 49.9971C37.5148 49.1381 37.0322 47.973 37.0322 46.7581V44.4792C37.3013 44.4964 37.6033 44.5079 37.9412 44.5079ZM37.0322 42.1832V42.1775C37.0335 40.963 37.5166 39.7987 38.3753 38.94C39.2341 38.0812 40.3984 37.5982 41.6128 37.5968C43.4236 37.5968 45.0283 38.7477 45.7655 40.3652C42.9255 41.6306 40.5951 42.0501 39.0792 42.1717C38.3982 42.2284 37.7138 42.2323 37.0322 42.1832V42.1832ZM42.758 53.5317V54.7742C42.758 55.078 42.6373 55.3692 42.4226 55.584C42.2078 55.7987 41.9165 55.9194 41.6128 55.9194C41.3091 55.9194 41.0178 55.7987 40.8031 55.584C40.5883 55.3692 40.4677 55.078 40.4677 54.7742V53.5317C41.2256 53.6615 42.0001 53.6615 42.758 53.5317V53.5317ZM55.3548 64.5081C55.3544 64.9636 55.1733 65.4003 54.8512 65.7223C54.5292 66.0444 54.0925 66.2255 53.637 66.2258H53.0644V60.5C53.0625 58.6783 52.338 56.9318 51.0498 55.6437C49.7617 54.3555 48.0152 53.631 46.1935 53.6291H45.0483V52.7044C46.0921 52.1015 46.959 51.2348 47.562 50.1911C48.165 49.1474 48.4829 47.9635 48.4838 46.7581V42.1775C48.4838 42.1445 48.4824 42.113 48.4795 42.0801C48.4201 40.3278 47.709 38.6608 46.4855 37.405C45.8577 36.7436 45.1021 36.2165 44.2645 35.8558C43.4269 35.4951 42.5248 35.3082 41.6128 35.3065C39.7911 35.3084 38.0446 36.033 36.7565 37.3211C35.4683 38.6092 34.7438 40.3558 34.7419 42.1775V46.7581C34.7428 47.9635 35.0607 49.1474 35.6637 50.1911C36.2667 51.2348 37.1336 52.1015 38.1773 52.7044V53.6291H37.0322C35.2105 53.631 33.4639 54.3555 32.1758 55.6437C30.8877 56.9318 30.1631 58.6783 30.1612 60.5V66.2258H29.5886C29.1332 66.2255 28.6965 66.0444 28.3744 65.7223C28.0524 65.4003 27.8713 64.9636 27.8709 64.5081V33.5888C27.8713 33.1333 28.0524 32.6966 28.3744 32.3745C28.6965 32.0525 29.1332 31.8714 29.5886 31.871H53.637C54.0925 31.8714 54.5292 32.0525 54.8512 32.3745C55.1733 32.6966 55.3544 33.1333 55.3548 33.5888V64.5081Z" fill="black"/>
<path d="M83.4112 29.5807H63.9435C62.8809 29.5819 61.8621 30.0046 61.1107 30.756C60.3593 31.5074 59.9366 32.5261 59.9354 33.5888V64.5081C59.9366 65.5707 60.3593 66.5895 61.1107 67.3409C61.8621 68.0923 62.8809 68.515 63.9435 68.5162H83.4112C84.4739 68.515 85.4926 68.0923 86.244 67.3409C86.9954 66.5895 87.4181 65.5707 87.4193 64.5081V33.5888C87.4181 32.5261 86.9954 31.5074 86.244 30.756C85.4926 30.0046 84.4739 29.5819 83.4112 29.5807V29.5807ZM85.129 64.5081C85.1285 64.9635 84.9473 65.4002 84.6253 65.7222C84.3033 66.0442 83.8667 66.2254 83.4112 66.2258H63.9435C63.4881 66.2254 63.0514 66.0442 62.7294 65.7222C62.4074 65.4002 62.2262 64.9635 62.2257 64.5081V37.5968H85.129V64.5081ZM62.2257 35.3065V33.5888C62.2262 33.1333 62.4074 32.6967 62.7294 32.3747C63.0514 32.0526 63.4881 31.8715 63.9435 31.871H83.4112C83.8667 31.8715 84.3033 32.0526 84.6253 32.3747C84.9473 32.6967 85.1285 33.1333 85.129 33.5888V35.3065H62.2257Z" fill="black"/>
<path d="M64.5161 45.6129H69.0968C69.4005 45.6129 69.6918 45.4922 69.9065 45.2775C70.1213 45.0627 70.2419 44.7714 70.2419 44.4677V41.0322C70.2419 40.7285 70.1213 40.4373 69.9065 40.2225C69.6918 40.0077 69.4005 39.8871 69.0968 39.8871H64.5161C64.2124 39.8871 63.9211 40.0077 63.7064 40.2225C63.4916 40.4373 63.371 40.7285 63.371 41.0322V44.4677C63.371 44.7714 63.4916 45.0627 63.7064 45.2775C63.9211 45.4922 64.2124 45.6129 64.5161 45.6129ZM65.6613 42.1774H67.9516V43.3226H65.6613V42.1774Z" fill="black"/>
<path d="M72.5322 42.1774H82.8387C83.1424 42.1774 83.4337 42.0568 83.6484 41.842C83.8632 41.6272 83.9839 41.336 83.9839 41.0322C83.9839 40.7285 83.8632 40.4373 83.6484 40.2225C83.4337 40.0077 83.1424 39.8871 82.8387 39.8871H72.5322C72.2285 39.8871 71.9373 40.0077 71.7225 40.2225C71.5077 40.4373 71.3871 40.7285 71.3871 41.0322C71.3871 41.336 71.5077 41.6272 71.7225 41.842C71.9373 42.0568 72.2285 42.1774 72.5322 42.1774Z" fill="black"/>
<path d="M72.5322 45.6129H77.1129C77.4166 45.6129 77.7079 45.4922 77.9226 45.2775C78.1374 45.0627 78.2581 44.7714 78.2581 44.4677C78.2581 44.164 78.1374 43.8727 77.9226 43.658C77.7079 43.4432 77.4166 43.3226 77.1129 43.3226H72.5322C72.2285 43.3226 71.9373 43.4432 71.7225 43.658C71.5077 43.8727 71.3871 44.164 71.3871 44.4677C71.3871 44.7714 71.5077 45.0627 71.7225 45.2775C71.9373 45.4922 72.2285 45.6129 72.5322 45.6129Z" fill="black"/>
<path d="M64.5161 52.4839H69.0968C69.4005 52.4839 69.6918 52.3632 69.9065 52.1485C70.1213 51.9337 70.2419 51.6424 70.2419 51.3387V47.9032C70.2419 47.5995 70.1213 47.3082 69.9065 47.0935C69.6918 46.8787 69.4005 46.7581 69.0968 46.7581H64.5161C64.2124 46.7581 63.9211 46.8787 63.7064 47.0935C63.4916 47.3082 63.371 47.5995 63.371 47.9032V51.3387C63.371 51.6424 63.4916 51.9337 63.7064 52.1485C63.9211 52.3632 64.2124 52.4839 64.5161 52.4839ZM65.6613 49.0484H67.9516V50.1935H65.6613V49.0484Z" fill="black"/>
<path d="M72.5322 49.0484H82.8387C83.1424 49.0484 83.4337 48.9277 83.6484 48.713C83.8632 48.4982 83.9839 48.2069 83.9839 47.9032C83.9839 47.5995 83.8632 47.3082 83.6484 47.0935C83.4337 46.8787 83.1424 46.7581 82.8387 46.7581H72.5322C72.2285 46.7581 71.9373 46.8787 71.7225 47.0935C71.5077 47.3082 71.3871 47.5995 71.3871 47.9032C71.3871 48.2069 71.5077 48.4982 71.7225 48.713C71.9373 48.9277 72.2285 49.0484 72.5322 49.0484Z" fill="black"/>
<path d="M72.5322 52.4839H77.1129C77.4166 52.4839 77.7079 52.3632 77.9226 52.1485C78.1374 51.9337 78.2581 51.6424 78.2581 51.3387C78.2581 51.035 78.1374 50.7437 77.9226 50.529C77.7079 50.3142 77.4166 50.1935 77.1129 50.1935H72.5322C72.2285 50.1935 71.9373 50.3142 71.7225 50.529C71.5077 50.7437 71.3871 51.035 71.3871 51.3387C71.3871 51.6424 71.5077 51.9337 71.7225 52.1485C71.9373 52.3632 72.2285 52.4839 72.5322 52.4839Z" fill="black"/>
<path d="M64.5161 59.3548H69.0968C69.4005 59.3548 69.6918 59.2342 69.9065 59.0194C70.1213 58.8047 70.2419 58.5134 70.2419 58.2097V54.7742C70.2419 54.4705 70.1213 54.1792 69.9065 53.9644C69.6918 53.7497 69.4005 53.629 69.0968 53.629H64.5161C64.2124 53.629 63.9211 53.7497 63.7064 53.9644C63.4916 54.1792 63.371 54.4705 63.371 54.7742V58.2097C63.371 58.5134 63.4916 58.8047 63.7064 59.0194C63.9211 59.2342 64.2124 59.3548 64.5161 59.3548ZM65.6613 55.9194H67.9516V57.0645H65.6613V55.9194Z" fill="black"/>
<path d="M72.5322 55.9194H82.8387C83.1424 55.9194 83.4337 55.7987 83.6484 55.5839C83.8632 55.3692 83.9839 55.0779 83.9839 54.7742C83.9839 54.4705 83.8632 54.1792 83.6484 53.9644C83.4337 53.7497 83.1424 53.629 82.8387 53.629H72.5322C72.2285 53.629 71.9373 53.7497 71.7225 53.9644C71.5077 54.1792 71.3871 54.4705 71.3871 54.7742C71.3871 55.0779 71.5077 55.3692 71.7225 55.5839C71.9373 55.7987 72.2285 55.9194 72.5322 55.9194Z" fill="black"/>
<path d="M72.5322 59.3548H77.1129C77.4166 59.3548 77.7079 59.2342 77.9226 59.0194C78.1374 58.8047 78.2581 58.5134 78.2581 58.2097C78.2581 57.906 78.1374 57.6147 77.9226 57.3999C77.7079 57.1852 77.4166 57.0645 77.1129 57.0645H72.5322C72.2285 57.0645 71.9373 57.1852 71.7225 57.3999C71.5077 57.6147 71.3871 57.906 71.3871 58.2097C71.3871 58.5134 71.5077 58.8047 71.7225 59.0194C71.9373 59.2342 72.2285 59.3548 72.5322 59.3548Z" fill="black"/>
</svg>
